<?xml version="1.0" encoding="utf-8"?>
<!-- Generator: Adobe Illustrator 24.1.1, SVG Export Plug-In . SVG Version: 6.00 Build 0)  -->
<svg version="1.1" id="Capa_1" xmlns="http://www.w3.org/2000/svg" xmlns:xlink="http://www.w3.org/1999/xlink" x="0px" y="0px"
	 viewBox="0 0 105 105" style="enable-background:new 0 0 105 105;" xml:space="preserve">
<style type="text/css">
	.st0{fill:#F6F6F6;}
	.st1{fill-rule:evenodd;clip-rule:evenodd;fill:#F6F6F6;}
</style>
<g>
	<path class="st0" d="M15.08,0.07H89.4c7.06,0,12.83,5.9,12.83,13.12v76c0,7.22-5.77,13.12-12.83,13.12H15.08
		c-7.06,0-12.84-5.9-12.84-13.12v-76C2.24,5.98,8.02,0.07,15.08,0.07z M75.09,11.43c-2.48,0-4.5,2.08-4.5,4.61v11.01
		c0,2.54,2.02,4.61,4.5,4.61h11.3c2.48,0,4.5-2.07,4.5-4.61V16.04c0-2.53-2.03-4.61-4.5-4.61H75.09z M90.93,43.31h-8.8
		c0.83,2.79,1.29,5.72,1.29,8.78c0,17-13.92,30.79-31.09,30.79c-17.16,0-31.09-13.79-31.09-30.79c0-3.06,0.46-5.99,1.29-8.78h-9.18
		V86.5c0,2.24,1.79,4.05,3.97,4.05h69.64c2.19,0,3.97-1.82,3.97-4.05V43.31z M52.33,31.08c-11.09,0-20.08,8.9-20.08,19.9
		c0,10.98,8.99,19.9,20.08,19.9c11.09,0,20.09-8.91,20.09-19.9C72.42,39.98,63.42,31.08,52.33,31.08z"/>
</g>
</svg>
