<?xml version="1.0" encoding="utf-8"?>
<!-- Generator: Adobe Illustrator 24.1.1, SVG Export Plug-In . SVG Version: 6.00 Build 0)  -->
<svg version="1.1" id="Capa_1" xmlns="http://www.w3.org/2000/svg" xmlns:xlink="http://www.w3.org/1999/xlink" x="0px" y="0px"
	 viewBox="0 0 105 105" style="enable-background:new 0 0 105 105;" xml:space="preserve">
<style type="text/css">
	.st0{fill:#F6F6F6;}
	.st1{fill-rule:evenodd;clip-rule:evenodd;fill:#F6F6F6;}
</style>
<g>
	<g>
		<g>
			<path class="st0" d="M24.72,13.04c0,6.11-3.89,11.11-11.11,11.11c-6.67,0-11.11-5-11.11-10.56c0-6.11,4.44-11.67,11.11-11.67
				S24.72,6.93,24.72,13.04z"/>
		</g>
		<g>
			<rect x="2.5" y="29.71" class="st0" width="22.22" height="72.22"/>
		</g>
		<g>
			<path class="st0" d="M78.06,30.82c-11.67,0-18.33,6.67-21.11,11.11h-0.56l-1.11-9.44h-20c0,6.11,0.56,13.33,0.56,21.67v47.78
				h22.22V62.49c0-2.22,0-3.89,0.56-5.56c1.67-3.89,4.44-8.89,10.56-8.89c7.78,0,11.11,6.67,11.11,15.56v38.33h22.22V60.82
				C102.5,40.27,91.94,30.82,78.06,30.82z"/>
		</g>
	</g>
</g>
</svg>
