<?xml version="1.0" encoding="utf-8"?>
<!-- Generator: Adobe Illustrator 24.1.1, SVG Export Plug-In . SVG Version: 6.00 Build 0)  -->
<svg version="1.1" id="Capa_1" xmlns="http://www.w3.org/2000/svg" xmlns:xlink="http://www.w3.org/1999/xlink" x="0px" y="0px"
	 viewBox="0 0 157 198" style="enable-background:new 0 0 157 198;" xml:space="preserve">
<style type="text/css">
	.st0{fill:#F6F6F6;}
</style>
<g>
	<g>
		<g>
			<path class="st0" d="M75.07,88.97c-4.08,5.18-3.79,12.33-3.79,12.33c31.5-15.21,44.04,2.01,44.04,2.01c1.46-4.59,0-8.17,0-8.17
				C98.86,81.77,75.07,88.97,75.07,88.97z"/>
			<path class="st0" d="M12.69,91.63c-1.17,3.44,0,4.88,0,4.88c9.92,7.18,28.12,6.03,32.66,4.3c3.69-3.54,2.62-13.77,2.62-13.77
				C37.77,99.66,12.69,91.63,12.69,91.63z"/>
			<path class="st0" d="M150.21,136.79c-2.02-1.99-5.11-1.7-22.37-1.31c-5.61,0.13-10.91,0.5-14.2,0.77
				c0.51-3.59,0.58-6.17,0.58-6.5c0.03-1.25-0.63-2.42-1.71-3.08c-13.27-8-30.94-9.19-40.28-9.19c-4.54,0-7.46,0.27-7.58,0.28
				c-1.53,0.14-2.79,1.23-3.15,2.7c-0.29,1.22-0.97,4.19-1.51,7.84c-3.23-1.49-6.48-1.89-9.31-1.71c0.61-3.01,0.95-5.47,1.09-6.52
				c0.18-1.43-0.54-2.83-1.82-3.53c-0.51-0.28-12.8-6.87-30.93-6.87c-3.8,0-7.63,0.29-11.39,0.88c-1.38,0.21-2.5,1.19-2.89,2.51
				c-0.28,0.95-6.67,23.34,4.68,33.18c3.23,2.8,8.8,4.41,15.28,4.41c0,0,0,0,0,0c7.45,0,14.31-2.17,18.36-5.79
				c2.08-1.86,3.71-5.05,4.98-8.55c2.2-0.63,6.81-1.28,11.14,2.32c0.05,4.08,0.67,7.92,2.39,10.45c5.69,8.4,22.12,13.56,31.39,13.56
				c2.61,0,4.81-0.38,6.52-1.12c6.28-2.73,9.88-9.15,11.96-15.52c5.51-0.52,11.15-0.89,16.26-1.07c-2.06,6.05-3.04,10.88-2.5,14.33
				c0.76,4.86,2.45,5.77,2.45,5.77c3.11-8.36,4.5-13,7.4-20.23c6.11,0.03,10.58,0.46,11.68,1.42c0.7,0.69,4.8,0.83,5.5,0.15
				C153.63,144.99,151.61,138.17,150.21,136.79z M38.26,142.68c-2.72,2.44-8.51,3.32-14.13,3.32c-4.55,0-10.21-2.03-12.07-3.64
				c-5.83-5.05-4.08-21.44-0.98-25.14c2.63-0.31,5.3-0.47,7.94-0.47c12,0,21.25,3.27,25.26,4.97
				C45.97,128.77,40.88,140.33,38.26,142.68z M97.17,158.08c-1.55,0.91-22.18,0.55-30.79-10.06c-2.32-2.86-2.41-17.11,1.56-23.39
				c1.13-0.05,2.59-0.09,4.3-0.09c8.16,0,23.15,0.96,34.72,7.12C108.04,137.01,106.08,152.84,97.17,158.08z"/>
			<path class="st0" d="M83.94,173.58c-1.52,0.24-0.75,3.65-0.75,3.65c-20.45,17.31-44.13,7.19-44.13,7.19s-2.44,3.03,11.17,6.62
				c19.98,5.28,36.1-9.39,36.1-9.39c5.94-0.27,13.01-3.4,13.01-3.4C98.19,174.96,85.47,173.34,83.94,173.58z"/>
			<path class="st0" d="M51.8,75.19c34.91-11.55,74.17,0.75,74.17,0.75c6.48,19.28,7.71,30.8,7.71,30.8
				c-0.35,2.74-0.43,17.29-1.35,22.11h6.79c6.89-15.89,11.39-42.48,11.39-45.42c0-5.36-9.13-12.2-9.13-12.2s3.67-8.56,0-17.54
				c-4.26-10.42-35.67-15.19-59.07-17.31c2.46-6.86,8.74-19.69,8.74-19.69c-15.48,0.56-30.13,10.95-33.72,13.68
				c2.88-11.05,9.82-23.62,10.49-26.72c-24.46,0-59.02,26.63-55.65,40.43C16.83,63.15,51.8,75.19,51.8,75.19z"/>
		</g>
	</g>
</g>
</svg>
