<?xml version="1.0" encoding="utf-8"?>
<!-- Generator: Adobe Illustrator 24.1.1, SVG Export Plug-In . SVG Version: 6.00 Build 0)  -->
<svg version="1.1" id="Capa_1" xmlns="http://www.w3.org/2000/svg" xmlns:xlink="http://www.w3.org/1999/xlink" x="0px" y="0px"
	 viewBox="0 0 347 203" style="enable-background:new 0 0 347 203;" xml:space="preserve">
<style type="text/css">
	.st0{fill:#FFFFFF;}
	.st1{fill:#3C3C3B;}
</style>
<g>
	<rect x="103.22" y="125.4" class="st0" width="239.18" height="56.25"/>
	<g>
		<path class="st0" d="M83.59,12.37c0,7.65-1.48,13.22-4.45,16.71c-2.81,3.39-7.04,5.09-12.66,5.09H20.84v18.16h45.64h17.11
			c0,8.33-1.79,14.24-5.36,17.73c-2.74,2.62-6.66,3.97-11.75,4.07H20.84v18.16c0,8.72-1.48,14.63-4.45,17.72
			c-2.66,2.71-6.89,4.07-12.67,4.07v-21.8V74.12V52.32V34.16c0-7.27,1.37-12.69,4.11-16.27c2.74-3.68,7.07-5.52,13.01-5.52h45.64
			H83.59z"/>
		<path class="st0" d="M170.08,12.37l-13.46,21.79l-14.49,23.69l21.22,25.43c4.64,5.52,6.96,10.7,6.96,15.55
			c0,4.65-2.05,9.73-6.16,15.26l-12.44-14.97l-20.2-24.12l-24.07,39.09c-4.03,0-7.23-0.56-9.58-1.67c-2.36-1.11-4.15-2.98-5.36-5.6
			c-1.37-3.2-2.05-8.04-2.05-14.53V34.16c0-6.68,1.22-11.82,3.65-15.4c2.81-4.26,7.3-6.39,13.46-6.39h40.73H170.08z M107.55,78.62
			l11.41-18.6l10.61-17.15l5.36-8.72h-27.38V78.62z"/>
		<path class="st0" d="M194.26,12.37h45.64c5.63,0,9.93,1.99,12.89,5.96c2.81,3.78,4.22,9.06,4.22,15.84v58.12
			c0,7.65-1.21,13.13-3.65,16.42c-2.59,3.58-7.08,5.38-13.46,5.38h-43.47c-7.83,0-13.04-1.65-15.63-4.94
			c-2.44-3.1-3.65-8.72-3.65-16.86l49.75-58.12h-32.63c-6.01,0-10.34-1.64-13.01-4.94c-2.74-3.49-4.11-9.1-4.11-16.85H194.26z
			 M202.48,92.28h37.42V48.55L202.48,92.28z"/>
		<path class="st0" d="M336.31,14.04c2.36,1.12,4.11,2.98,5.25,5.6c1.44,3.2,2.17,8.04,2.17,14.53v58.12
			c0,6.68-1.21,11.82-3.65,15.4c-2.81,4.27-7.27,6.4-13.35,6.4h-0.11l-45.64-66.11v44.32v21.8c-6.16,0-10.65-2.08-13.46-6.25
			c-2.43-3.68-3.65-8.87-3.65-15.55V34.16c0-6.49,0.68-11.28,2.05-14.38c1.21-2.62,3.01-4.48,5.36-5.59
			c2.36-1.11,5.55-1.72,9.58-1.82l22.94,33.85l11.86,17.58l10.95,16.27V47.82l0.11-35.45C330.76,12.37,333.95,12.93,336.31,14.04z"
			/>
	</g>
	<g>
		<path class="st1" d="M130.29,131.61v36.21h11.96v3.33h-15.48v-39.54H130.29z M148.5,167.82h3.04v3.33h-3.04V167.82z"/>
		<path class="st1" d="M197.73,151.35c0,2.71-0.54,5.27-1.61,7.67c-1.08,2.41-2.53,4.51-4.37,6.32c-1.84,1.8-4.01,3.23-6.5,4.26
			s-5.13,1.55-7.92,1.55s-5.42-0.52-7.89-1.55c-2.47-1.03-4.62-2.45-6.47-4.23s-3.3-3.88-4.37-6.29c-1.07-2.4-1.61-4.98-1.61-7.73
			c0-2.7,0.54-5.26,1.61-7.67c1.07-2.41,2.53-4.49,4.37-6.26c1.84-1.76,4-3.17,6.47-4.2c2.47-1.04,5.1-1.55,7.89-1.55
			s5.43,0.52,7.92,1.55c2.49,1.03,4.66,2.43,6.5,4.2c1.84,1.77,3.3,3.86,4.37,6.26C197.19,146.09,197.73,148.64,197.73,151.35z
			 M160.46,151.35c0,2.26,0.45,4.39,1.34,6.4c0.89,2.01,2.09,3.76,3.61,5.25c1.52,1.49,3.3,2.66,5.34,3.52
			c2.04,0.87,4.24,1.3,6.59,1.3c2.34,0,4.54-0.43,6.58-1.3c2.04-0.86,3.83-2.05,5.35-3.55c1.52-1.5,2.72-3.25,3.61-5.25
			c0.89-1.99,1.34-4.12,1.34-6.37s-0.45-4.38-1.34-6.37c-0.89-1.99-2.1-3.72-3.61-5.19c-1.52-1.46-3.31-2.63-5.37-3.5
			c-2.07-0.86-4.25-1.3-6.56-1.3s-4.49,0.42-6.56,1.27c-2.06,0.85-3.86,2.01-5.37,3.5s-2.72,3.23-3.61,5.21
			C160.9,146.97,160.46,149.09,160.46,151.35z M172.84,151.35c0-1.2,0.44-2.23,1.31-3.1c0.87-0.86,1.93-1.3,3.19-1.3
			c1.25,0,2.32,0.43,3.22,1.3c0.89,0.87,1.33,1.9,1.33,3.1c0,1.24-0.44,2.29-1.33,3.16c-0.89,0.86-1.96,1.3-3.22,1.3
			c-1.3,0-2.37-0.43-3.22-1.3C173.27,153.64,172.84,152.59,172.84,151.35z"/>
		<path class="st1" d="M236.34,131.61c2.67,0,5.04,0.55,7.1,1.66c2.07,1.11,3.78,2.59,5.16,4.45s2.42,4,3.13,6.4
			c0.71,2.41,1.06,4.89,1.06,7.45c0,2.56-0.36,5.02-1.06,7.39c-0.71,2.37-1.75,4.45-3.13,6.26c-1.38,1.8-3.09,3.24-5.16,4.32
			c-2.06,1.07-4.43,1.6-7.1,1.6h-14.51v-3.33h14.51c2.43,0,4.47-0.52,6.13-1.58c1.66-1.05,3.01-2.38,4.03-3.98
			c1.03-1.6,1.77-3.34,2.22-5.24c0.44-1.9,0.67-3.7,0.67-5.39c0-1.65-0.22-3.46-0.67-5.41c-0.44-1.96-1.19-3.77-2.22-5.45
			c-1.03-1.67-2.37-3.06-4.03-4.17c-1.66-1.11-3.7-1.66-6.13-1.66h-11.05v26.74h-3.46v-30.06H236.34z M234.33,147.23h2.55
			c0.77,0,1.42,0.41,1.94,1.24c0.52,0.83,0.79,1.9,0.79,3.21c0,1.32-0.27,2.39-0.79,3.22c-0.52,0.83-1.17,1.24-1.94,1.24h-2.55
			V147.23z"/>
		<path class="st1" d="M262.01,171.15h-3.46v-39.54h3.46V171.15z"/>
		<path class="st1" d="M301.11,135.33l-2.67,2.32c-1.38-0.87-2.78-1.52-4.22-1.98c-1.43-0.45-3.09-0.68-4.95-0.68
			c-2.31,0-4.48,0.44-6.53,1.3c-2.04,0.86-3.82,2.03-5.34,3.5c-1.52,1.47-2.72,3.2-3.61,5.19c-0.89,1.99-1.34,4.12-1.34,6.37
			s0.44,4.39,1.31,6.4c0.87,2.01,2.06,3.76,3.58,5.25c1.52,1.49,3.3,2.66,5.34,3.52c2.04,0.87,4.24,1.3,6.59,1.3
			c1.86,0,3.51-0.23,4.95-0.71c1.44-0.47,2.84-1.12,4.22-1.94l2.67,2.26c-0.93,0.64-1.85,1.19-2.76,1.63
			c-0.91,0.45-1.83,0.84-2.76,1.16c-0.93,0.32-1.91,0.56-2.95,0.71c-1.03,0.15-2.15,0.22-3.37,0.22c-2.79,0-5.42-0.52-7.89-1.55
			c-2.47-1.03-4.63-2.45-6.47-4.23s-3.3-3.88-4.37-6.29c-1.08-2.4-1.61-4.98-1.61-7.73c0-2.7,0.53-5.26,1.61-7.67
			c1.07-2.41,2.53-4.49,4.37-6.26c1.84-1.76,4-3.17,6.47-4.2c2.47-1.04,5.1-1.55,7.89-1.55c1.21,0,2.34,0.08,3.37,0.22
			c1.03,0.15,2.01,0.39,2.95,0.71c0.93,0.32,1.85,0.71,2.76,1.16C299.26,134.2,300.18,134.73,301.11,135.33z"/>
		<path class="st1" d="M332.01,131.61v3.32h-21.43v13.65h15.3v3.39h-15.3v15.85h12.26v3.33h-15.72v-39.54H332.01z M329.16,167.82
			h2.85v3.33h-2.85V167.82z"/>
	</g>
	<g>
		<g>
			<g>
				<path class="st0" d="M60.49,138.71c-2.31,2.93-2.15,6.98-2.15,6.98c17.84-8.62,24.95,1.14,24.95,1.14c0.83-2.6,0-4.63,0-4.63
					C73.96,134.63,60.49,138.71,60.49,138.71z"/>
				<path class="st0" d="M25.15,140.21c-0.66,1.95,0,2.76,0,2.76c5.62,4.06,15.93,3.41,18.5,2.44c2.09-2.01,1.49-7.8,1.49-7.8
					C39.36,144.77,25.15,140.21,25.15,140.21z"/>
				<path class="st0" d="M103.05,165.8c-1.15-1.13-2.89-0.96-12.67-0.74c-3.18,0.07-6.18,0.28-8.04,0.43
					c0.29-2.03,0.33-3.5,0.33-3.68c0.01-0.71-0.36-1.37-0.97-1.74c-7.52-4.53-17.52-5.2-22.82-5.2c-2.57,0-4.22,0.15-4.29,0.16
					c-0.87,0.08-1.58,0.7-1.78,1.53c-0.17,0.69-0.55,2.37-0.86,4.44c-1.83-0.84-3.67-1.07-5.28-0.97c0.35-1.71,0.54-3.1,0.62-3.69
					c0.1-0.81-0.3-1.6-1.03-2c-0.29-0.16-7.25-3.89-17.52-3.89c-2.15,0-4.32,0.17-6.45,0.5c-0.78,0.12-1.42,0.68-1.64,1.42
					c-0.16,0.54-3.78,13.22,2.65,18.79c1.83,1.59,4.99,2.5,8.65,2.5c0,0,0,0,0,0c4.22,0,8.11-1.23,10.4-3.28
					c1.18-1.05,2.1-2.86,2.82-4.84c1.25-0.36,3.86-0.72,6.31,1.31c0.03,2.31,0.38,4.49,1.35,5.92c3.22,4.76,12.53,7.68,17.78,7.68
					c1.48,0,2.72-0.21,3.69-0.64c3.56-1.55,5.6-5.19,6.77-8.79c3.12-0.29,6.32-0.5,9.21-0.61c-1.17,3.43-1.72,6.16-1.41,8.12
					c0.43,2.76,1.39,3.27,1.39,3.27c1.76-4.74,2.55-7.36,4.19-11.46c3.46,0.02,5.99,0.26,6.61,0.8c0.4,0.39,2.72,0.47,3.11,0.08
					C104.99,170.44,103.84,166.58,103.05,165.8z M39.63,169.13c-1.54,1.38-4.82,1.88-8,1.88c-2.57,0-5.78-1.15-6.83-2.06
					c-3.3-2.86-2.31-12.15-0.56-14.24c1.49-0.18,3-0.27,4.5-0.27c6.8,0,12.03,1.85,14.31,2.82C44,161.25,41.12,167.8,39.63,169.13z
					 M73,177.86c-0.88,0.52-12.56,0.31-17.44-5.7c-1.32-1.62-1.36-9.69,0.88-13.25c0.64-0.03,1.47-0.05,2.44-0.05
					c4.62,0,13.11,0.54,19.67,4.03C79.16,165.92,78.05,174.89,73,177.86z"/>
				<path class="st0" d="M65.51,186.64c-0.86,0.14-0.42,2.07-0.42,2.07c-11.59,9.8-25,4.07-25,4.07s-1.38,1.72,6.33,3.75
					c11.32,2.99,20.45-5.32,20.45-5.32c3.36-0.16,7.37-1.92,7.37-1.92C73.58,187.42,66.37,186.5,65.51,186.64z"/>
				<path class="st0" d="M47.3,130.9c19.77-6.54,42.01,0.42,42.01,0.42c3.67,10.92,4.37,17.45,4.37,17.45
					c-0.2,1.55-0.25,9.8-0.76,12.53h3.85c3.9-9,6.45-24.06,6.45-25.73c0-3.04-5.17-6.91-5.17-6.91s2.08-4.85,0-9.94
					c-2.41-5.9-20.21-8.6-33.46-9.81c1.39-3.89,4.95-11.16,4.95-11.16c-8.77,0.32-17.07,6.2-19.1,7.75
					c1.63-6.26,5.56-13.38,5.94-15.14c-13.85,0-33.43,15.09-31.52,22.9C27.49,124.09,47.3,130.9,47.3,130.9z"/>
			</g>
		</g>
	</g>
</g>
</svg>
