<?xml version="1.0" encoding="utf-8"?>
<!-- Generator: Adobe Illustrator 24.1.1, SVG Export Plug-In . SVG Version: 6.00 Build 0)  -->
<svg version="1.1" id="Capa_1" xmlns="http://www.w3.org/2000/svg" xmlns:xlink="http://www.w3.org/1999/xlink" x="0px" y="0px"
	 viewBox="0 0 105 105" style="enable-background:new 0 0 105 105;" xml:space="preserve">
<style type="text/css">
	.st0{fill:#F6F6F6;}
	.st1{fill-rule:evenodd;clip-rule:evenodd;fill:#F6F6F6;}
</style>
<g>
	<path class="st1" d="M2.57,88.8c7.46,0.5,14.7-0.65,21.51-3.85c3.07-1.41,5.85-3.13,8.63-5.42c-3.25-0.07-6.22-0.91-8.92-2.33
		c-4.61-2.44-7.86-6.3-9.84-11.49c-0.44-1.15-0.44-1.15,0.77-1.07c3.29,0.34,5.7,0.27,7.57-0.5c-1.79-0.65-3.48-0.99-4.86-1.95
		C10.54,58.22,6.89,52.07,6.27,43.82c-0.07-0.95,0.18-1.07,1.02-0.65c2.42,1.42,5.05,1.99,8.08,2.29c-1.31-1.22-2.45-2.21-3.47-3.28
		c-5.71-6.41-7.06-16.57-3.26-24.39c0.51-1.07,0.7-1.07,1.39-0.23c9.62,11.57,21.57,18.55,35.99,20.96c1.46,0.3,3.07,0.3,4.57,0.65
		c1.02,0.15,1.13-0.34,0.98-1.15C50.08,28.97,54.14,20,61.82,15.5c7.83-4.77,17.99-3.28,24.28,3.13c0.73,0.65,1.43,0.8,2.27,0.57
		c3.88-0.91,7.49-2.4,10.9-4.46c0.29-0.08,0.51-0.23,0.88-0.57c-1.46,5.12-4.39,8.9-8.7,11.91c3.98-0.38,7.57-1.64,11.12-3.01
		c0.07,0.5-0.3,0.8-0.51,1.22c-2.42,3.44-5.23,6.49-8.56,9.12c-0.62,0.5-0.77,0.92-0.77,1.72c0.25,15.81-4.57,29.85-14.23,42.07
		C69.43,88.3,57.83,95.06,44.05,97.35c-14.63,2.37-28.38-0.15-41.03-8.32C2.87,88.88,2.68,88.8,2.57,88.8z"/>
</g>
</svg>
